<mxfile host="app.diagrams.net" modified="2025-10-02T14:00:00.000Z" agent="5.0 (Macintosh; Intel Mac OS X 10_15_7) AppleWebKit/537.36 (KHTML, like Gecko) Chrome/91.0.4472.114 Safari/537.36" etag="wMh7eXwSmDBq4eH_9j6V" version="14.8.0" type="device">
  <diagram id="prtHgNgQTEPvFCAcTncT" name="Kubernetes Architecture">
    <mxGraphModel dx="1298" dy="834" grid="1" gridSize="10" guides="1" tooltips="1" connect="1" arrows="1" fold="1" page="1" pageScale="1" pageWidth="827" pageHeight="1169" math="0" shadow="0">
      <root>
        <mxCell id="0" />
        <mxCell id="1" parent="0" />
        <!-- Title -->
        <mxCell id="2" value="Blockchain Metrics Framework: Airflow on Kubernetes" style="text;html=1;strokeColor=#6c8ebf;fillColor=#dae8fc;align=center;verticalAlign=middle;whiteSpace=wrap;rounded=1;fontSize=16;fontStyle=1" vertex="1" parent="1">
          <mxGeometry x="94" y="20" width="640" height="30" as="geometry" />
        </mxCell>
        
        <!-- Data Sources -->
        <mxCell id="3" value="Blockchain Event Stream" style="shape=cylinder3;whiteSpace=wrap;html=1;boundedLbl=1;backgroundOutline=1;size=15;fillColor=#dae8fc;strokeColor=#6c8ebf;shadow=1" vertex="1" parent="1">
          <mxGeometry x="160" y="80" width="100" height="80" as="geometry" />
        </mxCell>
        
        <mxCell id="4" value="Postgres&#xa;Time-Series" style="shape=cylinder3;whiteSpace=wrap;html=1;boundedLbl=1;backgroundOutline=1;size=15;fillColor=#dae8fc;strokeColor=#6c8ebf;shadow=1" vertex="1" parent="1">
          <mxGeometry x="400" y="80" width="100" height="80" as="geometry" />
        </mxCell>
        
        <!-- Kubernetes Cluster -->
        <mxCell id="5" value="Kubernetes Cluster" style="rounded=0;whiteSpace=wrap;html=1;fillColor=#f5f5f5;strokeColor=#666666;fontColor=#333333;verticalAlign=top;fontStyle=1;fontSize=14;" vertex="1" parent="1">
          <mxGeometry x="40" y="190" width="760" height="670" as="geometry" />
        </mxCell>
        
        <!-- Redis Buffer -->
        <mxCell id="6" value="Redis StatefulSet" style="rounded=0;whiteSpace=wrap;html=1;fillColor=#fff2cc;strokeColor=#d6b656;verticalAlign=top;fontStyle=1" vertex="1" parent="1">
          <mxGeometry x="80" y="230" width="200" height="130" as="geometry" />
        </mxCell>
        
        <!-- Redis Pods -->
        <mxCell id="7" value="Redis Master Pod" style="rounded=1;whiteSpace=wrap;html=1;fillColor=#fff2cc;strokeColor=#d6b656;shadow=1" vertex="1" parent="1">
          <mxGeometry x="100" y="270" width="120" height="60" as="geometry" />
        </mxCell>
        
        <!-- Redis PVC -->
        <mxCell id="8" value="Redis PVC" style="shape=cylinder3;whiteSpace=wrap;html=1;boundedLbl=1;backgroundOutline=1;size=15;fillColor=#fff2cc;strokeColor=#d6b656;shadow=1" vertex="1" parent="1">
          <mxGeometry x="240" y="270" width="30" height="60" as="geometry" />
        </mxCell>
        
        <!-- Airflow Namespace -->
        <mxCell id="9" value="Airflow Components" style="rounded=0;whiteSpace=wrap;html=1;fillColor=#d5e8d4;strokeColor=#82b366;verticalAlign=top;fontStyle=1" vertex="1" parent="1">
          <mxGeometry x="80" y="380" width="680" height="200" as="geometry" />
        </mxCell>
        
        <!-- Airflow Webserver -->
        <mxCell id="10" value="Airflow Webserver" style="rounded=1;whiteSpace=wrap;html=1;fillColor=#d5e8d4;strokeColor=#82b366;shadow=1" vertex="1" parent="1">
          <mxGeometry x="100" y="420" width="120" height="60" as="geometry" />
        </mxCell>
        
        <!-- Airflow Scheduler -->
        <mxCell id="11" value="Airflow Scheduler" style="rounded=1;whiteSpace=wrap;html=1;fillColor=#d5e8d4;strokeColor=#82b366;shadow=1" vertex="1" parent="1">
          <mxGeometry x="260" y="420" width="120" height="60" as="geometry" />
        </mxCell>
        
        <!-- Postgres DB -->
        <mxCell id="12" value="PostgreSQL StatefulSet" style="rounded=1;whiteSpace=wrap;html=1;fillColor=#d5e8d4;strokeColor=#82b366;shadow=1" vertex="1" parent="1">
          <mxGeometry x="420" y="420" width="150" height="60" as="geometry" />
        </mxCell>
        
        <!-- DAG Volume -->
        <mxCell id="13" value="DAG PVC" style="shape=cylinder3;whiteSpace=wrap;html=1;boundedLbl=1;backgroundOutline=1;size=15;fillColor=#d5e8d4;strokeColor=#82b366;shadow=1" vertex="1" parent="1">
          <mxGeometry x="620" y="420" width="60" height="60" as="geometry" />
        </mxCell>
        
        <!-- Dynamic DAG Builder -->
        <mxCell id="14" value="Dynamic DAG Builder" style="rounded=1;whiteSpace=wrap;html=1;fillColor=#d5e8d4;strokeColor=#82b366;shadow=1" vertex="1" parent="1">
          <mxGeometry x="180" y="500" width="120" height="60" as="geometry" />
        </mxCell>
        
        <!-- Metric Registry -->
        <mxCell id="15" value="Metric Registry ConfigMaps" style="rounded=1;whiteSpace=wrap;html=1;fillColor=#d5e8d4;strokeColor=#82b366;shadow=1" vertex="1" parent="1">
          <mxGeometry x="340" y="500" width="160" height="60" as="geometry" />
        </mxCell>
        
        <!-- Kubernetes Pod Operator Section -->
        <mxCell id="16" value="Dynamic Metric Calculation Pods (KubernetesPodOperator)" style="rounded=0;whiteSpace=wrap;html=1;fillColor=#e1d5e7;strokeColor=#9673a6;verticalAlign=top;fontStyle=1" vertex="1" parent="1">
          <mxGeometry x="80" y="600" width="680" height="240" as="geometry" />
        </mxCell>
        
        <!-- Hourly Metrics Pod -->
        <mxCell id="17" value="Transaction Count Pod&#xa;(hourly)" style="rounded=1;whiteSpace=wrap;html=1;fillColor=#e1d5e7;strokeColor=#9673a6;shadow=1" vertex="1" parent="1">
          <mxGeometry x="100" y="640" width="140" height="60" as="geometry" />
        </mxCell>
        
        <!-- Daily Metrics Pod -->
        <mxCell id="18" value="Gas Usage Pod&#xa;(daily)" style="rounded=1;whiteSpace=wrap;html=1;fillColor=#e1d5e7;strokeColor=#9673a6;shadow=1" vertex="1" parent="1">
          <mxGeometry x="280" y="640" width="140" height="60" as="geometry" />
        </mxCell>
        
        <!-- Weekly Metrics Pod -->
        <mxCell id="19" value="Active Addresses Pod&#xa;(weekly)" style="rounded=1;whiteSpace=wrap;html=1;fillColor=#e1d5e7;strokeColor=#9673a6;shadow=1" vertex="1" parent="1">
          <mxGeometry x="460" y="640" width="140" height="60" as="geometry" />
        </mxCell>
        
        <!-- Backfill Pod -->
        <mxCell id="20" value="Backfill Pod" style="rounded=1;whiteSpace=wrap;html=1;fillColor=#e1d5e7;strokeColor=#9673a6;shadow=1" vertex="1" parent="1">
          <mxGeometry x="620" y="640" width="120" height="60" as="geometry" />
        </mxCell>
        
        <!-- Container details -->
        <mxCell id="21" value="Pod Components" style="swimlane;fontStyle=1;childLayout=stackLayout;horizontal=1;startSize=26;fillColor=#e1d5e7;horizontalStack=0;resizeParent=1;resizeParentMax=0;resizeLast=0;collapsible=1;marginBottom=0;strokeColor=#9673a6;" vertex="1" parent="1">
          <mxGeometry x="100" y="720" width="220" height="104" as="geometry" />
        </mxCell>
        
        <mxCell id="22" value="Metric Calculator Container" style="text;strokeColor=none;fillColor=none;align=left;verticalAlign=top;spacingLeft=4;spacingRight=4;overflow=hidden;rotatable=0;points=[[0,0.5],[1,0.5]];portConstraint=eastwest;" vertex="1" parent="21">
          <mxGeometry y="26" width="220" height="26" as="geometry" />
        </mxCell>
        
        <mxCell id="23" value="ConfigMap Volume Mount" style="text;strokeColor=none;fillColor=none;align=left;verticalAlign=top;spacingLeft=4;spacingRight=4;overflow=hidden;rotatable=0;points=[[0,0.5],[1,0.5]];portConstraint=eastwest;" vertex="1" parent="21">
          <mxGeometry y="52" width="220" height="26" as="geometry" />
        </mxCell>
        
        <mxCell id="24" value="Resource Limits (CPU/Memory)" style="text;strokeColor=none;fillColor=none;align=left;verticalAlign=top;spacingLeft=4;spacingRight=4;overflow=hidden;rotatable=0;points=[[0,0.5],[1,0.5]];portConstraint=eastwest;" vertex="1" parent="21">
          <mxGeometry y="78" width="220" height="26" as="geometry" />
        </mxCell>
        
        <!-- Resource allocation -->
        <mxCell id="25" value="Resource Allocation" style="swimlane;fontStyle=1;childLayout=stackLayout;horizontal=1;startSize=26;fillColor=#e1d5e7;horizontalStack=0;resizeParent=1;resizeParentMax=0;resizeLast=0;collapsible=1;marginBottom=0;strokeColor=#9673a6;" vertex="1" parent="1">
          <mxGeometry x="360" y="720" width="240" height="104" as="geometry" />
        </mxCell>
        
        <mxCell id="26" value="Small: 256Mi RAM / 100m CPU" style="text;strokeColor=none;fillColor=none;align=left;verticalAlign=top;spacingLeft=4;spacingRight=4;overflow=hidden;rotatable=0;points=[[0,0.5],[1,0.5]];portConstraint=eastwest;" vertex="1" parent="25">
          <mxGeometry y="26" width="240" height="26" as="geometry" />
        </mxCell>
        
        <mxCell id="27" value="Medium: 512Mi RAM / 500m CPU" style="text;strokeColor=none;fillColor=none;align=left;verticalAlign=top;spacingLeft=4;spacingRight=4;overflow=hidden;rotatable=0;points=[[0,0.5],[1,0.5]];portConstraint=eastwest;" vertex="1" parent="25">
          <mxGeometry y="52" width="240" height="26" as="geometry" />
        </mxCell>
        
        <mxCell id="28" value="Large: 1Gi RAM / 1000m CPU" style="text;strokeColor=none;fillColor=none;align=left;verticalAlign=top;spacingLeft=4;spacingRight=4;overflow=hidden;rotatable=0;points=[[0,0.5],[1,0.5]];portConstraint=eastwest;" vertex="1" parent="25">
          <mxGeometry y="78" width="240" height="26" as="geometry" />
        </mxCell>
        
        <!-- Redis Buffer details -->
        <mxCell id="29" value="Redis Buffer Features" style="swimlane;fontStyle=1;childLayout=stackLayout;horizontal=1;startSize=26;fillColor=#fff2cc;horizontalStack=0;resizeParent=1;resizeParentMax=0;resizeLast=0;collapsible=1;marginBottom=0;strokeColor=#d6b656;" vertex="1" parent="1">
          <mxGeometry x="330" y="270" width="240" height="78" as="geometry" />
        </mxCell>
        
        <mxCell id="30" value="AOF Persistence for Durability" style="text;strokeColor=none;fillColor=none;align=left;verticalAlign=top;spacingLeft=4;spacingRight=4;overflow=hidden;rotatable=0;points=[[0,0.5],[1,0.5]];portConstraint=eastwest;" vertex="1" parent="29">
          <mxGeometry y="26" width="240" height="26" as="geometry" />
        </mxCell>
        
        <mxCell id="31" value="Consumer Groups with Checkpoints" style="text;strokeColor=none;fillColor=none;align=left;verticalAlign=top;spacingLeft=4;spacingRight=4;overflow=hidden;rotatable=0;points=[[0,0.5],[1,0.5]];portConstraint=eastwest;" vertex="1" parent="29">
          <mxGeometry y="52" width="240" height="26" as="geometry" />
        </mxCell>
        
        <!-- PostgreSQL Metrics DB -->
        <mxCell id="32" value="PostgreSQL&#xa;Metrics Database" style="shape=cylinder3;whiteSpace=wrap;html=1;boundedLbl=1;backgroundOutline=1;size=15;fillColor=#dae8fc;strokeColor=#6c8ebf;shadow=1" vertex="1" parent="1">
          <mxGeometry x="590" y="270" width="100" height="80" as="geometry" />
        </mxCell>
        
        <!-- Connection arrows removed -->
        
        <!-- Kubernetes labels -->
        <mxCell id="46" value="Namespace: blockchain-metrics" style="text;html=1;strokeColor=#666666;fillColor=#f5f5f5;align=center;verticalAlign=middle;whiteSpace=wrap;rounded=1;fontStyle=1;fontColor=#333333;" vertex="1" parent="1">
          <mxGeometry x="660" y="200" width="200" height="20" as="geometry" />
        </mxCell>
        
        <!-- Time Bucket Architecture -->
        <mxCell id="47" value="Time Bucket Architecture" style="swimlane;fontStyle=1;childLayout=stackLayout;horizontal=1;startSize=26;fillColor=#dae8fc;horizontalStack=0;resizeParent=1;resizeParentMax=0;resizeLast=0;collapsible=1;marginBottom=0;strokeColor=#6c8ebf;" vertex="1" parent="1">
          <mxGeometry x="610" y="500" width="150" height="78" as="geometry" />
        </mxCell>
        
        <mxCell id="48" value="Hourly Buckets" style="text;strokeColor=none;fillColor=none;align=left;verticalAlign=top;spacingLeft=4;spacingRight=4;overflow=hidden;rotatable=0;points=[[0,0.5],[1,0.5]];portConstraint=eastwest;" vertex="1" parent="47">
          <mxGeometry y="26" width="150" height="26" as="geometry" />
        </mxCell>
        
        <mxCell id="49" value="Daily/Weekly Buckets" style="text;strokeColor=none;fillColor=none;align=left;verticalAlign=top;spacingLeft=4;spacingRight=4;overflow=hidden;rotatable=0;points=[[0,0.5],[1,0.5]];portConstraint=eastwest;" vertex="1" parent="47">
          <mxGeometry y="52" width="150" height="26" as="geometry" />
        </mxCell>
      <!-- Flow description elements -->
        <mxCell id="flow1" value="1. Ingest Events" style="text;html=1;strokeColor=#666666;fillColor=#f5f5f5;align=center;verticalAlign=middle;whiteSpace=wrap;rounded=1;fontStyle=1;fontSize=11;fontColor=#333333;" vertex="1" parent="1">
          <mxGeometry x="240" y="130" width="100" height="20" as="geometry" />
        </mxCell>
        
        <mxCell id="flow2" value="2. Buffer Data" style="text;html=1;strokeColor=#666666;fillColor=#f5f5f5;align=center;verticalAlign=middle;whiteSpace=wrap;rounded=1;fontStyle=1;fontSize=11;fontColor=#333333;" vertex="1" parent="1">
          <mxGeometry x="290" y="250" width="100" height="20" as="geometry" />
        </mxCell>
        
        <mxCell id="flow3" value="3. Orchestrate" style="text;html=1;strokeColor=#666666;fillColor=#f5f5f5;align=center;verticalAlign=middle;whiteSpace=wrap;rounded=1;fontStyle=1;fontSize=11;fontColor=#333333;" vertex="1" parent="1">
          <mxGeometry x="550" y="390" width="100" height="20" as="geometry" />
        </mxCell>
        
        <mxCell id="flow4" value="4. Calculate Metrics" style="text;html=1;strokeColor=#666666;fillColor=#f5f5f5;align=center;verticalAlign=middle;whiteSpace=wrap;rounded=1;fontStyle=1;fontSize=11;fontColor=#333333;" vertex="1" parent="1">
          <mxGeometry x="550" y="610" width="120" height="20" as="geometry" />
        </mxCell>
        
        <mxCell id="flow5" value="5. Store Results" style="text;html=1;strokeColor=#666666;fillColor=#f5f5f5;align=center;verticalAlign=middle;whiteSpace=wrap;rounded=1;fontStyle=1;fontSize=11;fontColor=#333333;" vertex="1" parent="1">
          <mxGeometry x="550" y="320" width="100" height="20" as="geometry" />
        </mxCell>
      </root>
    </mxGraphModel>
  </diagram>
</mxfile>
